<?xml version="1.0" encoding="UTF-8"?>
<svg id="Camada_2" data-name="Camada 2" xmlns="http://www.w3.org/2000/svg" xmlns:xlink="http://www.w3.org/1999/xlink" viewBox="0 0 230.59 90.57">
  <defs>
    <style>
      .cls-1 {
        fill: #7b297d;
      }

      .cls-1, .cls-2, .cls-3 {
        stroke-width: 0px;
      }

      .cls-2 {
        fill: #e9495b;
      }

      .cls-3 {
        fill: url(#Gradiente_sem_nome_30);
      }
    </style>
    <linearGradient id="Gradiente_sem_nome_30" data-name="Gradiente sem nome 30" x1="14.81" y1="31.18" x2="99.21" y2="31.18" gradientUnits="userSpaceOnUse">
      <stop offset="0" stop-color="#7b297d"/>
      <stop offset="1" stop-color="#e9495b"/>
    </linearGradient>
  </defs>
  <g id="Camada_1-2" data-name="Camada 1">
    <path class="cls-1" d="M208.09,52.86c.82-.47,1.56-.98,2.3-1.51.4-.28.67-.2.82.27.19.58.46,1.16.54,1.76.22,1.59.36,3.2.53,4.83,0-.47-.03-.93,0-1.38.14-1.73.19-3.47.88-5.1.22-.53.47-.67.96-.31.75.55,1.51,1.07,2.27,1.61.02-.02.04-.03.06-.05-.13-.18-.26-.35-.38-.53-.43-.59-.85-1.19-1.28-1.78-.3-.42-.22-.71.29-.86.59-.18,1.16-.45,1.76-.53,1.58-.22,3.18-.35,4.78-.53-.44,0-.88.03-1.31,0-1.75-.15-3.52-.19-5.18-.88-.54-.23-.65-.48-.3-.96.52-.71,1.02-1.43,1.52-2.15-.24.05-.41.17-.59.29-.56.4-1.12.79-1.68,1.19-.4.29-.71.28-.88-.25-.18-.56-.44-1.12-.52-1.69-.22-1.61-.37-3.23-.5-4.47-.03.5-.02,1.4-.16,2.28-.2,1.25-.48,2.5-.76,3.74-.14.62-.49.75-1.03.35-.72-.54-1.47-1.05-2.35-1.68.63.88,1.14,1.63,1.68,2.35.41.54.26.85-.35,1.03-.52.16-1.04.39-1.57.46-1.61.21-3.22.36-4.68.52.17,0,.5-.02.83,0,1.78.14,3.57.15,5.27.81.93.37.95.41.4,1.24-.44.67-.92,1.31-1.39,1.96Z"/>
    <path class="cls-1" d="M25.82,14.86c-.13.84-.32,1.67-.51,2.5-.09.42-.33.5-.69.23-.48-.36-.98-.7-1.58-1.12.42.59.76,1.09,1.13,1.57.27.36.17.57-.23.69-.35.11-.69.26-1.05.31-1.08.14-2.16.24-3.13.35.11,0,.34-.01.56,0,1.19.09,2.39.1,3.52.54.63.25.64.27.27.83-.29.45-.62.87-.93,1.31.55-.31,1.05-.66,1.54-1.01.27-.19.45-.13.55.18.13.39.31.78.36,1.18.15,1.07.24,2.14.36,3.23,0-.32-.02-.62,0-.93.1-1.15.13-2.32.59-3.42.15-.36.31-.45.64-.21.5.37,1.01.72,1.52,1.08l.04-.03c-.09-.12-.17-.23-.26-.35-.29-.4-.57-.8-.86-1.19-.2-.28-.15-.47.19-.58.39-.12.78-.3,1.18-.35,1.06-.15,2.13-.24,3.2-.35-.29,0-.59.02-.87,0-1.17-.1-2.35-.12-3.47-.59-.36-.15-.44-.32-.2-.64.35-.47.68-.96,1.02-1.44-.16.03-.28.11-.39.2-.37.27-.75.53-1.12.8-.27.19-.48.19-.59-.17-.12-.38-.3-.75-.35-1.13-.15-1.08-.25-2.16-.34-2.99-.02.34-.02.94-.11,1.52Z"/>
    <path class="cls-1" d="M15.55,16.17c1.04.76,2.11,1.5,3.16,2.24.03-.02.05-.04.08-.07-.18-.24-.36-.49-.53-.73-.59-.83-1.19-1.66-1.78-2.48-.42-.59-.31-.99.4-1.2.82-.25,1.62-.62,2.46-.74,2.21-.3,4.43-.49,6.66-.73-.61,0-1.22.04-1.82,0-2.44-.2-4.9-.26-7.22-1.23-.76-.32-.91-.67-.42-1.34.72-.99,1.42-2,2.12-3-.33.07-.58.24-.82.41-.78.55-1.56,1.11-2.34,1.66-.56.4-.99.39-1.22-.35-.24-.79-.62-1.56-.73-2.36-.31-2.25-.51-4.51-.7-6.23-.04.7-.03,1.95-.22,3.17-.27,1.75-.67,3.48-1.06,5.21-.2.87-.68,1.05-1.43.48-1.01-.76-2.05-1.46-3.28-2.34.88,1.23,1.59,2.27,2.35,3.27.57.76.36,1.19-.48,1.44-.73.22-1.45.54-2.19.64-2.24.3-4.49.5-6.53.72.24,0,.7-.03,1.16,0,2.47.19,4.98.21,7.34,1.13,1.3.51,1.32.57.56,1.72-.61.93-1.29,1.82-1.93,2.73,1.14-.65,2.18-1.37,3.21-2.1.56-.39.94-.28,1.15.37.26.81.64,1.62.75,2.45.31,2.22.5,4.46.74,6.73,0-.66-.04-1.3,0-1.93.2-2.4.26-4.83,1.23-7.11.31-.74.66-.93,1.34-.44Z"/>
    <path class="cls-2" d="M54.93,73.95c-1.18-.32-1.52-.73-1.56-1.84,0-.17,0-.33,0-.5,0-2.4,0-4.8,0-7.2,0-3.28,0-6.56,0-9.84,0-.12-.07-.35-.11-.35-.47-.01-1.08-.15-1.39.06-1.23.81-2.56,1.46-3.93,2.05-.43.19-.52.48-.4,1.16.06.36.4.25.62.28.92.13,1.28.38,1.42,1.23.1.62.08,1.25.1,1.88.01.54,0,1.07,0,1.65-.13-.03-.2-.03-.25-.06-2.16-1.04-4.33-1-6.49-.03-1.76.78-2.82,2.11-3.44,3.73-.76,1.97-.75,3.92.21,5.86,1.59,3.18,6.06,4.12,8.61,3.1.43-.17.85-.38,1.32-.59-.05.5.26.55.66.55,1.5,0,3.01.02,4.51,0,.17,0,.49-.19.48-.22-.11-.31.23-.76-.35-.92ZM49.1,72.98c-.62.46-1.28.84-2.11.89-1.26.08-2.2-.46-2.86-1.35-1.15-1.54-1.39-3.25-1.05-5.05.19-1.01.49-1.99,1.19-2.83.87-1.05,2.47-1.54,3.85-1.17,1.06.28,1.55.87,1.55,1.85,0,1.05,0,2.09,0,3.14h0c0,1.12-.02,2.23,0,3.35.01.49-.18.86-.58,1.17Z"/>
    <path class="cls-2" d="M69.55,72.3c0-2.04.01-4.08,0-6.11-.01-1.68-.67-3.05-2.46-3.76-.78-.31-1.63-.53-2.47-.65-1.79-.25-3.48.08-5.04.93-.79.43-1.31,1.06-1.52,1.88-.21.82.47,1.6,1.4,1.66,1.04.07,1.53-.52,1.97-1.21.23-.36.47-.72.76-1.05.57-.64,1.37-.8,2.18-.55.75.23,1.27.77,1.34,1.52.06.62.03,1.25,0,1.88,0,.1-.17.24-.29.27-1.56.41-3.13.79-4.68,1.21-1.16.31-2.2.82-3.07,1.6-1.54,1.37-1.38,3.66.41,4.68.69.39,1.51.69,2.31.81,2.02.29,3.98.07,5.77-.95.75.62,1.6,1.04,2.65,1.05.93.01,1.79-.15,2.49-.73.18-.15.24-.43.35-.65-.19-.06-.38-.14-.58-.17-1.08-.17-1.54-.66-1.53-1.65ZM63.14,73.86c-.44.02-.92,0-1.32-.15-1.42-.5-1.93-2.21-.95-3.32,1.21-1.38,2.89-1.92,4.91-2,0,1.08,0,2.08,0,3.08.02,1.29-1.22,2.33-2.64,2.39Z"/>
    <path class="cls-2" d="M133.51,80.01c-1.83-.62-2.21-1.14-2.21-3.05,0-5.12,0-10.24-.01-15.36,0-.23-.09-.66-.16-.66-.76-.03-1.65-.23-2.27.07-1.87.9-3.61,2.1-5.48,3-.76.37-.98.75-.98,1.5,0,.53.17.7.69.76,1.76.19,2.52.88,2.58,2.65.1,2.71.05,5.43.06,8.15,0,.09-.02.18-.03.27-.06.83-.43,1.49-1.15,1.9-.64.36-1.33.64-2.08.99-.01.18,0,.5-.06.81-.12.63.11.81.76.8,3.26-.02,6.53,0,9.79.01.34,0,.67-.04,1.11-.07-.05-.5-.07-.95-.17-1.38-.03-.15-.23-.33-.4-.39Z"/>
    <path class="cls-2" d="M125.12,53.94c0,1.67,1.36,2.97,3.09,2.96,1.73-.01,3.14-1.34,3.12-2.95-.02-1.65-1.47-3.08-3.12-3.07-1.72.01-3.09,1.37-3.09,3.07Z"/>
    <path class="cls-2" d="M116.67,49.85c-2.45-1.03-5.03-1.43-7.67-1.44-5.63-.02-11.26-.04-16.89,0-1.87.02-3.76.15-5.62.38-2.81.33-5.39,1.28-7.51,3.25-2.83,2.64-3.83,6.95-2.29,10.48,1.16,2.66,3.32,4.13,6.21,4.48,3.6.43,6.52-.78,8.61-3.78.77-1.1,1.19-2.33,1.16-3.7-.04-1.37-.73-2.53-1.89-2.89-1.26-.39-2.37.05-3.23.96-.88.92-1.37,2.06-1.5,3.35-.08.77-.23,1.54-.44,2.28-.23.84-.84,1.25-1.74,1.3-1.81.1-3.52-.94-4.26-2.68-1.12-2.68-.73-7.04,3.27-9.18,1.68-.9,3.48-1.45,5.38-1.53,2.19-.09,4.39-.28,6.55.31,1.19.32,1.76,1.02,1.86,2.24.03.42.04.84.04,1.27,0,6.76,0,13.53,0,20.29,0,.29,0,.58-.03.87-.16,1.7-1.04,2.85-2.68,3.39-.4.13-.83.23-1.2.41-.17.08-.32.34-.34.53-.04.41.02.83.04,1.32h14.29c0-.47-.01-.87,0-1.26.02-.43-.1-.62-.59-.77-2.78-.87-3.6-1.7-3.58-4.6.02-3.27,0-6.54,0-9.92.3,0,.54,0,.78,0,2.69-.05,5.38-.06,8.07-.15,2.2-.08,4.31-.57,6.2-1.75,2.79-1.74,3.91-4.36,3.66-7.51-.23-2.92-2-4.82-4.66-5.93ZM115.06,57.29c-.19,2.54-1.99,4.54-4.42,4.96-.94.16-1.91.16-2.87.18-1.52.03-3.05,0-4.57.02-.46,0-.61-.12-.59-.61.05-1.27.02-2.53.02-3.8h.03c0-1.33-.05-2.67.01-4,.07-1.67.75-2.56,2.42-2.76,1.47-.17,2.99-.08,4.48.01.72.04,1.45.29,2.13.55,2.62,1,3.56,2.94,3.37,5.45Z"/>
    <path class="cls-2" d="M158.48,64.49c-2.3-3.34-5.62-4.31-9.47-3.86-1.33.15-2.57.7-3.58,1.83-.06-.34-.08-.58-.16-.8-.05-.15-.17-.39-.27-.4-.81-.06-1.61-.22-2.4.27-1.62.98-3.27,1.92-4.96,2.78-.99.5-1.01.42-1.02,1.52,0,.48.11.69.66.75,1.46.15,2.27.91,2.45,2.21.07.51.12,1.02.12,1.53,0,5.03.02,10.06,0,15.09,0,1.75-.91,2.81-2.64,3.19-.2.04-.51.18-.53.3-.06.5-.1,1.03.03,1.5.04.14.68.11,1.05.15.11.01.22,0,.34,0,3.05,0,6.1,0,9.15.02.54,0,.74-.18.69-.69-.02-.18-.02-.36,0-.53.02-.49-.13-.74-.7-.82-.94-.14-1.92-1.08-1.95-1.89-.06-1.75-.02-3.51-.02-5.28.94.36,1.76.84,2.64.98,3.72.59,6.96-.39,9.38-3.36,2.43-2.99,3.06-6.5,2.7-10.24-.15-1.53-.65-2.96-1.52-4.23ZM153.08,77.7c-1.05,1.75-3.34,2.65-5.26,2.04-.86-.28-1.61-.92-2.36-1.46-.18-.13-.21-.52-.22-.8-.02-1.91,0-3.83,0-5.74h-.02c0-1.76.04-3.52-.02-5.27-.02-.79.26-1.33.83-1.85,1.49-1.35,3.17-1.86,5.14-1.27,1.48.44,2.34,1.57,2.76,2.9,1.25,3.9,1.33,7.8-.85,11.45Z"/>
    <path class="cls-2" d="M229.83,80.01c-.47-.13-.97-.22-1.39-.45-.92-.51-1.07-1.41-1.07-2.36,0-3.52.01-7.03,0-10.55,0-1.84-.83-3.3-2.32-4.37-3.41-2.43-8.95-2.39-12.35.07-.93.67-1.52,1.56-1.79,2.66-.34,1.39.64,2.65,2.08,2.74,1.33.08,2.03-.73,2.65-1.72.41-.66.79-1.35,1.28-1.95.77-.96,1.84-1.15,2.98-.84,1.06.28,1.79,1,1.94,2.07.15,1.03.1,2.08.16,3.12.02.41-.12.57-.53.68-2.01.54-4.01,1.12-6,1.7-2.12.61-4.07,1.5-5.56,3.2-1.45,1.66-1.52,4.33-.13,6.04,1.15,1.42,2.79,2.04,4.51,2.29,2.9.43,5.72.15,8.28-1.54,1.46,1.33,3.16,1.9,5.13,1.62,1.61-.23,2.63-.99,2.91-2.28-.28-.05-.52-.07-.75-.14ZM219.64,79.51c-1.52.67-3.06.66-4.4-.5-1.31-1.13-1.39-3.61-.11-4.96,1.83-1.92,4.12-2.81,6.85-2.88v3.41c0,.49-.02.98,0,1.47.08,1.73-.88,2.82-2.34,3.46Z"/>
    <path class="cls-2" d="M174.57,60.59c-4.44-.52-8.14.95-10.66,4.66-2.11,3.11-2.49,6.64-1.52,10.24.72,2.69,2.44,4.67,5.03,5.83,1.69.76,3.45,1.24,4.97,1.18,6.74.13,12.52-4.87,11.81-11.89-.54-5.42-4.19-9.38-9.63-10.02ZM177.07,77.34c-1.61,2.89-5.16,3.44-7.65,1.35-1.12-.94-1.49-2.3-1.78-3.65-.21-.97-.23-1.98-.34-2.97-.02-2,.19-3.95.99-5.81.86-2.02,2.41-3.03,4.58-3.13,2.09-.1,3.6.87,4.46,2.71,1.81,3.86,1.82,7.77-.25,11.51Z"/>
    <path class="cls-2" d="M194.55,64.48c.42-.48.89-.81,1.37-1.03.07-.03.14-.06.22-.09,1.52-.58,3.16.06,4.06,1.85.19.38.34.77.54,1.15.69,1.33,2.34,1.82,3.62,1.11,1.14-.63,1.44-2.2.64-3.47-.58-.92-1.38-1.62-2.33-2.16-1.68-.96-3.47-1.36-5.32-1.34-.23,0-.45,0-.68.02-.02,0-.05,0-.07,0-.16.01-.32.03-.48.05-.14.01-.27.02-.41.04-2.73.36-4.95,1.53-6.52,3.61-.08.1-.15.2-.23.29-.04.06-.09.12-.13.18-1.1,1.5-1.72,3.3-1.83,5.4-.03.47-.03.95-.03,1.42,0,.47,0,.94.03,1.42.12,2.1.73,3.9,1.83,5.4.04.06.09.12.13.18.08.1.15.2.23.29,1.58,2.08,3.8,3.25,6.52,3.61.14.02.27.03.41.04.16.02.32.04.48.05.02,0,.04,0,.07,0,.23.01.46.02.69.02,1.84.01,3.64-.38,5.31-1.34.95-.54,1.75-1.24,2.33-2.16.79-1.26.49-2.83-.64-3.47-1.28-.72-2.93-.22-3.62,1.11-.2.37-.35.77-.54,1.15-.9,1.79-2.54,2.43-4.06,1.85-.07-.03-.14-.06-.22-.09-.48-.22-.95-.56-1.37-1.03-1.06-1.2-1.52-2.66-1.75-4.19-.14-.94-.21-1.88-.22-2.82.01-.94.08-1.88.22-2.82.23-1.53.69-2.99,1.75-4.19Z"/>
    <path class="cls-2" d="M126.85,42.54c-1.12-.29-2.61-.66-2.61-2.81v-11.45c1.24-.95,2.81-1.82,4.22-1.82,2.19,0,3.43,1.24,3.43,3.6v9.51c0,2.07-1.2,2.52-2.65,3.02v1.74h10.3v-1.82c-1.16-.29-2.56-.99-2.56-3.35v-9.39c0-4.05-2.03-6.2-6.2-6.2-2.44,0-4.59.83-6.53,2.19v-1.61h-1.9c-.74.58-1.86,1.32-3.1,1.98-1.03.54-2.11,1.08-3.14,1.45v1.82l1.28.12c.58.08,1.78.58,1.78,3.02v6.91c0,2.19-1.69,2.69-3.1,3.06v1.82h10.79v-1.78Z"/>
    <path class="cls-3" d="M88.58,14.56c0,.93,0,1.67,0,2.4,0,6.87,0,13.74,0,20.6,0,2.4-.95,3.75-3.22,4.58q-1.25.46-1.2,1.77c0,.13.02.26.04.45.35.02.66.04.97.04,4.11.01,8.22.01,12.34.03,1.26,0,1.22.02,1.33-1.15.06-.58-.18-.69-.66-.85-3.01-1.05-3.8-1.96-3.77-4.79.04-4.67.01-9.34.01-14.01,0-2.45.02-4.9,0-7.34,0-1.39.61-2.41,1.84-3.01.69-.34,1.44-.58,2.19-.73.57-.11.82-.31.75-.88-.02-.16-.03-.32,0-.47.1-.64-.19-.81-.81-.81-3.36.02-6.72,0-10.08.02-.39,0-.78.02-1.16.09-.17.03-.37.17-.45.32-.64,1.12-1.24,2.27-1.86,3.4-3.11,5.57-6.22,11.13-9.33,16.69-.43.77-.87,1.52-1.39,2.42-.1-.34-.18-.54-.21-.75-.41-2.89-.81-5.79-1.21-8.68-.56-3.99-1.13-7.98-1.68-11.98-.2-1.48-.18-1.51-1.59-1.51-7.79,0-15.58-.04-23.37.01-2.59.02-5.14.44-7.51,1.57-3.81,1.83-5.16,6-3.07,9.47,1.37,2.28,4.31,3.52,7.26,3.12,1.51-.21,2.8-.78,3.77-1.97.94-1.14.75-2.64-.4-3.52-.92-.71-1.87-.5-2.77-.08-.87.4-1.66.94-2.51,1.39-1.13.61-2.28.15-2.69-1.04-.61-1.76.02-3.69,1.56-4.76,1.15-.8,2.45-1.21,3.82-1.37,1.06-.12,2.14-.11,3.21-.11,4.18-.01,8.36-.02,12.54,0,1.69,0,2.19.51,1.95,2.19-.17,1.15-.5,2.3-.9,3.4-3.15,8.61-7.89,16.26-14.32,22.85-2.12,2.17-4.49,4.04-7.17,5.53-3.29,1.84-6.78,2.38-10.5,2.06-6.61-.57-11.19-5.27-10.4-12.37.21-1.86,1.07-3.36,2.78-4.28.8-.43,1.61-.47,2.39.05.91.61,1.8,1.24,2.71,1.85.97.65,1.99.64,2.97.09,1.68-.94,2.05-2.89.86-4.51-1.22-1.65-2.98-2.4-4.97-2.46-3.37-.11-5.93,1.49-7.78,4.17-2.58,3.76-2.66,7.84-.78,11.83,2.68,5.69,7.53,8.25,13.69,8.43,4.95.14,9.34-1.66,13.36-4.38,3.82-2.59,7.01-5.86,9.88-9.45,2.82-3.54,5.1-7.4,6.96-11.5,1.54-3.4,2.98-6.85,4.47-10.28.26-.61.54-1.2.82-1.81.1.01.2.03.31.04.88,4.91,1.25,9.89,1.85,14.84.6,4.98,1.23,9.96,1.86,15.01.62,0,1.24.02,1.85-.01.16,0,.36-.16.45-.3.21-.32.36-.68.55-1.01,4.98-8.75,9.96-17.51,14.96-26.25.42-.73.91-1.42,1.47-2.28Z"/>
    <path class="cls-2" d="M189.77,51.83c.35-1.51-.41-2.75-1.94-3.15-1.37-.36-2.83.45-3.22,1.82-.15.52-.2,1.07-.27,1.6-.13.95-.4,1.2-1.36,1.25-1.58.08-2.59-.49-2.96-2.02-.34-1.37-.56-2.81-.58-4.22-.06-5.57-.02-11.15-.03-16.73,0-.79-.05-1.59-.14-2.37-.35-3.03-2.01-4.74-5.05-5.19-2.18-.32-4.27.03-6.27.93-.65.3-1.3.61-2.04.95-.04-.24-.08-.35-.06-.46.11-.67-.18-.86-.84-.85-.83.01-1.53.19-2.28.66-1.66,1.03-3.42,1.89-5.17,2.77-.8.4-.43,1.06-.48,1.61-.04.54.47.37.77.42,1.66.27,2.36,1.08,2.37,2.76,0,2.49-.09,4.99.03,7.48.08,1.67-.7,2.58-2.11,3.17-.27.11-.57.19-.82.33-.15.08-.33.26-.34.4-.02.44.05.89.08,1.41.35,0,.67,0,.99,0,3.24.01,6.49.03,9.73.04.33,0,.76.16.82-.44.1-1.03-.03-1.32-.58-1.55-1.54-.66-2.1-1.14-2.21-2.61-.02-.27-.06-.54-.06-.81,0-3.51-.01-7.03.02-10.54,0-.46.08-1.13.39-1.36,1.22-.91,2.54-1.7,4.14-1.77,2.2-.1,3.62,1.2,3.63,3.39,0,3.44-.02,6.89,0,10.33.02,2.94.03,5.89.15,8.83.1,2.39.84,4.59,2.78,6.13,2.99,2.38,6.37,2.53,9.82,1.19,1.52-.59,2.69-1.71,3.08-3.41Z"/>
    <path class="cls-2" d="M185.98,43.93c1.17.47,2.38.75,3.66.78,2.18.06,4.31-.19,6.21-1.3.6-.35.93-.28,1.41.1,1.34,1.06,2.9,1.39,4.58,1.11,1.05-.17,2.04-.52,2.66-1.48.45-.69.36-.87-.44-.96-1.35-.15-2.64-.89-2.56-2.75.07-1.74.02-3.49.02-5.23h-.02c0-1.86.03-3.72,0-5.57-.05-2.28-1.13-3.99-3.17-5.03-3.38-1.73-6.83-1.76-10.29-.23-1.37.6-2.51,1.49-3.14,2.89-.54,1.21-.21,2.5.76,3.08,1.1.65,2.52.42,3.32-.6.38-.48.63-1.05.99-1.54.38-.53.74-1.09,1.22-1.54,1.34-1.26,4.27-.9,4.67,1.69.16,1,.12,2.03.19,3.04.03.45-.17.61-.59.73-2.13.58-4.26,1.19-6.38,1.81-1.93.56-3.71,1.41-5.1,2.9-.76.82-1.31,1.75-1.41,2.88-.2,2.36,1.1,4.31,3.42,5.24ZM189.2,35.95c1.83-1.86,4.13-2.65,6.85-2.82,0,1.02,0,1.99,0,2.95,0,.68,0,1.36,0,2.04-.05,2.16-1.57,3.78-3.76,3.91-.73.04-1.56.02-2.19-.29-2.17-1.07-2.6-4.07-.89-5.8Z"/>
    <path class="cls-2" d="M103.86,41.58c-.72.48-1.52.84-2.28,1.26-.04-.05-.08-.1-.12-.15-.02.33,0,.67-.06,1-.09.57.1.74.69.74,3.31-.02,6.62,0,9.94.01.33,0,.66-.05,1.03-.09,0-.25,0-.43,0-.61,0-.66-.16-1.11-.97-1.27-1.11-.22-1.77-1.2-1.78-2.36,0-3.85,0-7.71,0-11.56,0-1.5,0-2.99-.01-4.49,0-.2-.13-.56-.21-.56-.84-.04-1.64-.25-2.49.26-1.83,1.1-3.71,2.13-5.65,3.03-.91.42-.44,1.07-.53,1.6-.09.51.44.4.75.44,1.63.22,2.45.96,2.51,2.61.1,2.74.07,5.48.06,8.22,0,.75-.25,1.47-.9,1.9Z"/>
    <path class="cls-2" d="M145.86,39.93c-.06.83-.43,1.49-1.15,1.9-.64.36-1.33.64-2.08.99-.01.18,0,.5-.06.81-.12.63.11.81.76.8,3.26-.02,6.53,0,9.79.01.34,0,.67-.04,1.11-.07-.05-.5-.07-.95-.17-1.38-.03-.15-.23-.33-.4-.39-1.83-.62-2.21-1.14-2.21-3.05,0-5.12,0-10.24-.01-15.36,0-.23-.09-.66-.16-.66-.76-.03-1.65-.23-2.27.07-1.87.9-3.61,2.1-5.48,3-.76.37-.98.75-.98,1.5,0,.53.17.7.69.76,1.76.19,2.52.88,2.58,2.65.1,2.71.05,5.43.06,8.15,0,.09-.02.18-.03.27Z"/>
    <path class="cls-2" d="M148.37,19.49c1.73-.01,3.14-1.34,3.12-2.95-.02-1.65-1.47-3.08-3.12-3.07-1.72.01-3.09,1.37-3.09,3.07,0,1.67,1.36,2.97,3.09,2.96Z"/>
    <path class="cls-2" d="M107.05,19.49c1.73.04,3.24-1.24,3.28-2.8.05-1.68-1.38-3.19-3.04-3.23-1.71-.03-3.13,1.31-3.17,2.99-.04,1.64,1.27,3,2.93,3.04Z"/>
  </g>
</svg>